<svg xmlns="http://www.w3.org/2000/svg" viewBox="0 0 32 32" width="32" height="32">
  <!-- 背景圆形 -->
  <circle cx="16" cy="16" r="15" fill="#3b82f6" stroke="#1d4ed8" stroke-width="1"/>
  
  <!-- 引擎齿轮 -->
  <g fill="white" stroke="white" stroke-width="0.5">
    <!-- 四个外齿轮 - 统一设计 -->
    <path d="M16 6 L18 6 L19 8 L21 8 L21 10 L19 10 L18 12 L16 12 L14 12 L13 10 L11 10 L11 8 L13 8 L14 6 Z"/>
    <path d="M16 20 L18 20 L19 22 L21 22 L21 24 L19 24 L18 26 L16 26 L14 26 L13 24 L11 24 L11 22 L13 22 L14 20 Z"/>
    <path d="M6 16 L6 18 L8 19 L8 21 L10 21 L10 19 L12 18 L12 16 L12 14 L10 13 L10 11 L8 11 L8 13 L6 14 Z"/>
    <path d="M26 16 L26 18 L24 19 L24 21 L22 21 L22 19 L20 18 L20 16 L20 14 L22 13 L22 11 L24 11 L24 13 L26 14 Z"/>
    
    <!-- 内齿轮 -->
    <circle cx="16" cy="16" r="4" fill="none" stroke="white" stroke-width="1.5"/>
    <circle cx="16" cy="16" r="2" fill="white"/>
  </g>
  
  <!-- 科技感装饰线条 -->
  <g stroke="#60a5fa" stroke-width="0.8" fill="none" opacity="0.7">
    <line x1="8" y1="8" x2="10" y2="10"/>
    <line x1="24" y1="8" x2="22" y2="10"/>
    <line x1="8" y1="24" x2="10" y2="22"/>
    <line x1="24" y1="24" x2="22" y2="22"/>
  </g>
</svg> 